# Blender v2.79 (sub 0) OBJ File: ''
# www.blender.org
mtllib vanilla_crossing.mtl
o RAIL_BASE
v -0.500000 0.187500 0.812500
v 0.500000 0.187500 0.812500
v 0.500000 0.187500 -0.812500
v -0.500000 0.187500 -0.812500
v -0.500000 0.000000 -0.812500
v 0.500000 0.000000 -0.812500
v 0.500000 -0.000000 0.812500
v -0.500000 -0.000000 0.812500
v -0.500000 0.375000 0.625000
v 0.500000 0.375000 0.625000
v 0.500000 0.375000 -0.625000
v -0.500000 0.375000 -0.625000
v -0.500000 0.187500 -0.625000
v 0.500000 0.187500 -0.625000
v 0.500000 0.187500 0.625000
v -0.500000 0.187500 0.625000
vt 1.210938 0.062500
vt 1.335938 0.062500
vt 1.335938 0.468750
vt 1.210938 0.468750
vt 1.335938 0.062500
vt 1.460938 0.062500
vt 1.460938 0.468750
vt 1.335938 0.468750
vt 1.210938 0.015625
vt 1.335938 0.015625
vt 1.664062 0.062500
vt 1.539062 0.062500
vt 1.539062 0.015625
vt 1.664062 0.015625
vt 1.007812 0.062500
vt 1.007812 0.015625
vt 1.296875 0.609375
vt 1.421875 0.609375
vt 1.421875 0.921875
vt 1.296875 0.921875
vt 1.421875 0.609375
vt 1.546875 0.609375
vt 1.546875 0.921875
vt 1.421875 0.921875
vt 1.296875 0.562500
vt 1.421875 0.562500
vt 1.703125 0.609375
vt 1.578125 0.609375
vt 1.578125 0.562500
vt 1.703125 0.562500
vt 1.140625 0.609375
vt 1.140625 0.562500
vn 0.0000 1.0000 0.0000
vn 0.0000 -1.0000 -0.0000
vn 0.0000 -0.0000 1.0000
vn 0.0000 0.0000 -1.0000
vn 1.0000 0.0000 0.0000
vn -1.0000 0.0000 0.0000
usemtl ModelMaterial
s 1
f 1/1/1 2/2/1 3/3/1 4/4/1
f 5/5/2 6/6/2 7/7/2 8/8/2
f 2/2/3 1/1/3 8/9/3 7/10/3
f 4/11/4 3/12/4 6/13/4 5/14/4
f 3/12/5 2/2/5 7/10/5 6/13/5
f 1/1/6 4/15/6 5/16/6 8/9/6
f 9/17/1 10/18/1 11/19/1 12/20/1
f 13/21/2 14/22/2 15/23/2 16/24/2
f 10/18/3 9/17/3 16/25/3 15/26/3
f 12/27/4 11/28/4 14/29/4 13/30/4
f 11/28/5 10/18/5 15/26/5 14/29/5
f 9/17/6 12/31/6 13/32/6 16/25/6
o RAIL_RIGHT
v -0.500000 0.312500 -0.718750
v 0.500000 0.312500 -0.718750
v 0.500000 0.312500 -0.781250
v -0.500000 0.312500 -0.781250
v -0.500000 0.187500 -0.781250
v 0.500000 0.187500 -0.781250
v 0.500000 0.187500 -0.718750
v -0.500000 0.187500 -0.718750
v -0.500000 0.375000 -0.687500
v 0.500000 0.375000 -0.687500
v 0.500000 0.375000 -0.812500
v -0.500000 0.375000 -0.812500
v -0.500000 0.312500 -0.812500
v 0.500000 0.312500 -0.812500
v 0.500000 0.312500 -0.687500
v -0.500000 0.312500 -0.687500
v -0.500000 0.375000 -0.812500
v 0.500000 0.375000 -0.812500
v 0.500000 0.250000 -1.500000
v -0.500000 0.250000 -1.500000
v -0.500000 0.000000 -1.750000
v 0.500000 0.000000 -1.750000
v 0.500000 0.000000 -0.812500
v -0.500000 0.000000 -0.812500
v -0.500000 0.375000 -0.812500
v 0.500000 0.375000 -0.812500
v 0.500000 0.190239 -2.048770
v -0.500000 0.190239 -2.048770
v -0.500000 0.004798 -2.021055
v 0.500000 0.004798 -2.021055
v 0.500000 0.004119 -0.757071
v -0.500000 0.004119 -0.757071
v -0.500000 0.190239 -2.048770
v 0.500000 0.190239 -2.048770
v 0.500000 0.005478 -3.285040
v -0.500000 0.005478 -3.285040
v -0.500000 0.005478 -3.285040
v 0.500000 0.005478 -3.285040
v 0.500000 0.004798 -2.021055
v -0.500000 0.004798 -2.021055
vt 1.015625 0.968750
vt 1.140625 0.968750
vt 1.140625 0.984375
vt 1.015625 0.984375
vt 1.140625 0.968750
vt 1.265625 0.968750
vt 1.265625 0.984375
vt 1.140625 0.984375
vt 1.015625 0.937500
vt 1.140625 0.937500
vt 1.273438 0.968750
vt 1.148438 0.968750
vt 1.148438 0.937500
vt 1.273438 0.937500
vt 1.007812 0.968750
vt 1.007812 0.937500
vt 1.648438 0.953125
vt 1.773438 0.953125
vt 1.773438 0.984375
vt 1.648438 0.984375
vt 1.773438 0.953125
vt 1.898438 0.953125
vt 1.898438 0.984375
vt 1.773438 0.984375
vt 1.648438 0.937500
vt 1.773438 0.937500
vt 1.914062 0.953125
vt 1.789062 0.953125
vt 1.789062 0.937500
vt 1.914062 0.937500
vt 1.632812 0.953125
vt 1.632812 0.937500
vt 1.640625 0.750000
vt 1.765625 0.750000
vt 1.765625 0.921875
vt 1.640625 0.921875
vt 1.765625 0.750000
vt 1.890625 0.750000
vt 1.890625 0.921875
vt 1.765625 0.921875
vt 1.640625 0.671875
vt 1.765625 0.671875
vt 1.976562 0.750000
vt 1.851562 0.750000
vt 1.851562 0.671875
vt 1.976562 0.671875
vt 1.554688 0.750000
vt 1.554688 0.671875
vt 1.296875 0.609375
vt 1.421875 0.609375
vt 1.421875 0.921875
vt 1.296875 0.921875
vt 1.421875 0.609375
vt 1.546875 0.609375
vt 1.546875 0.921875
vt 1.421875 0.921875
vt 1.296875 0.562500
vt 1.421875 0.562500
vt 1.703125 0.609375
vt 1.578125 0.609375
vt 1.578125 0.562500
vt 1.703125 0.562500
vt 1.140625 0.609375
vt 1.140625 0.562500
vt 1.296875 0.609375
vt 1.421875 0.609375
vt 1.421875 0.921875
vt 1.296875 0.921875
vt 1.421875 0.609375
vt 1.546875 0.609375
vt 1.546875 0.921875
vt 1.421875 0.921875
vt 1.296875 0.562500
vt 1.421875 0.562500
vt 1.703125 0.609375
vt 1.578125 0.609375
vt 1.578125 0.562500
vt 1.703125 0.562500
vt 1.140625 0.609375
vt 1.140625 0.562500
vn 0.0000 1.0000 0.0000
vn 0.0000 -1.0000 -0.0000
vn 0.0000 0.0000 1.0000
vn 0.0000 0.0000 -1.0000
vn 1.0000 0.0000 0.0000
vn -1.0000 0.0000 0.0000
vn 0.0000 0.9839 -0.1789
vn 0.0000 0.7071 -0.7071
vn 0.0000 0.9890 -0.1478
vn 0.0000 -1.0000 -0.0005
vn 0.0000 0.1478 0.9890
vn 0.0000 -0.1478 -0.9890
usemtl ModelMaterial
s 1
f 17/33/7 18/34/7 19/35/7 20/36/7
f 21/37/8 22/38/8 23/39/8 24/40/8
f 18/34/9 17/33/9 24/41/9 23/42/9
f 20/43/10 19/44/10 22/45/10 21/46/10
f 19/44/11 18/34/11 23/42/11 22/45/11
f 17/33/12 20/47/12 21/48/12 24/41/12
f 25/49/7 26/50/7 27/51/7 28/52/7
f 29/53/8 30/54/8 31/55/8 32/56/8
f 26/50/9 25/49/9 32/57/9 31/58/9
f 28/59/10 27/60/10 30/61/10 29/62/10
f 27/60/11 26/50/11 31/58/11 30/61/11
f 25/49/12 28/63/12 29/64/12 32/57/12
f 33/65/13 34/66/13 35/67/13 36/68/13
f 37/69/8 38/70/8 39/71/8 40/72/8
f 34/66/9 33/65/9 40/73/9 39/74/9
f 36/75/14 35/76/14 38/77/14 37/78/14
f 35/76/11 34/66/11 39/74/11 38/77/11
f 33/65/12 36/79/12 37/80/12 40/73/12
f 41/81/15 42/82/15 43/83/15 44/84/15
f 45/85/16 46/86/16 47/87/16 48/88/16
f 42/82/17 41/81/17 48/89/17 47/90/17
f 44/91/18 43/92/18 46/93/18 45/94/18
f 43/92/11 42/82/11 47/90/11 46/93/11
f 41/81/12 44/95/12 45/96/12 48/89/12
f 49/97/15 50/98/15 51/99/15 52/100/15
f 53/101/16 54/102/16 55/103/16 56/104/16
f 50/98/17 49/97/17 56/105/17 55/106/17
f 52/107/9 51/108/9 54/109/9 53/110/9
f 51/108/11 50/98/11 55/106/11 54/109/11
f 49/97/12 52/111/12 53/112/12 56/105/12
o RAIL_LEFT
v -0.500000 0.312500 0.781250
v 0.500000 0.312500 0.781250
v 0.500000 0.312500 0.718750
v -0.500000 0.312500 0.718750
v -0.500000 0.187500 0.718750
v 0.500000 0.187500 0.718750
v 0.500000 0.187500 0.781250
v -0.500000 0.187500 0.781250
v -0.500000 0.375000 0.812500
v 0.500000 0.375000 0.812500
v 0.500000 0.375000 0.687500
v -0.500000 0.375000 0.687500
v -0.500000 0.312500 0.687500
v 0.500000 0.312500 0.687500
v 0.500000 0.312500 0.812500
v -0.500000 0.312500 0.812500
v -0.500000 0.250000 1.500000
v 0.500000 0.250000 1.500000
v 0.500000 0.375000 0.812500
v -0.500000 0.375000 0.812500
v -0.500000 -0.000000 0.812500
v 0.500000 -0.000000 0.812500
v 0.500000 -0.000000 1.750000
v -0.500000 -0.000000 1.750000
v -0.500000 0.190238 2.048770
v 0.500000 0.190238 2.048770
v 0.500000 0.375000 0.812500
v -0.500000 0.375000 0.812500
v -0.500000 0.004119 0.757071
v 0.500000 0.004119 0.757071
v 0.500000 0.004797 2.021055
v -0.500000 0.004797 2.021055
v -0.500000 0.005475 3.285040
v 0.500000 0.005475 3.285040
v 0.500000 0.190238 2.048770
v -0.500000 0.190238 2.048770
v -0.500000 0.004797 2.021055
v 0.500000 0.004797 2.021055
v 0.500000 0.005475 3.285040
v -0.500000 0.005475 3.285040
vt 1.328125 0.968750
vt 1.453125 0.968750
vt 1.453125 0.984375
vt 1.328125 0.984375
vt 1.453125 0.968750
vt 1.578125 0.968750
vt 1.578125 0.984375
vt 1.453125 0.984375
vt 1.328125 0.937500
vt 1.453125 0.937500
vt 1.585938 0.968750
vt 1.460938 0.968750
vt 1.460938 0.937500
vt 1.585938 0.937500
vt 1.320312 0.968750
vt 1.320312 0.937500
vt 1.023438 0.828125
vt 1.148438 0.828125
vt 1.148438 0.859375
vt 1.023438 0.859375
vt 1.148438 0.828125
vt 1.273438 0.828125
vt 1.273438 0.859375
vt 1.148438 0.859375
vt 1.023438 0.812500
vt 1.148438 0.812500
vt 1.289062 0.828125
vt 1.164062 0.828125
vt 1.164062 0.812500
vt 1.289062 0.812500
vt 1.007812 0.828125
vt 1.007812 0.812500
vt 1.585938 0.265625
vt 1.710938 0.265625
vt 1.710938 0.437500
vt 1.585938 0.437500
vt 1.710938 0.265625
vt 1.835938 0.265625
vt 1.835938 0.437500
vt 1.710938 0.437500
vt 1.585938 0.187500
vt 1.710938 0.187500
vt 1.921875 0.265625
vt 1.796875 0.265625
vt 1.796875 0.187500
vt 1.921875 0.187500
vt 1.500000 0.265625
vt 1.500000 0.187500
vt 1.296875 0.609375
vt 1.421875 0.609375
vt 1.421875 0.921875
vt 1.296875 0.921875
vt 1.421875 0.609375
vt 1.546875 0.609375
vt 1.546875 0.921875
vt 1.421875 0.921875
vt 1.296875 0.562500
vt 1.421875 0.562500
vt 1.703125 0.609375
vt 1.578125 0.609375
vt 1.578125 0.562500
vt 1.703125 0.562500
vt 1.140625 0.609375
vt 1.140625 0.562500
vt 1.296875 0.609375
vt 1.421875 0.609375
vt 1.421875 0.921875
vt 1.296875 0.921875
vt 1.421875 0.609375
vt 1.546875 0.609375
vt 1.546875 0.921875
vt 1.421875 0.921875
vt 1.296875 0.562500
vt 1.421875 0.562500
vt 1.703125 0.609375
vt 1.578125 0.609375
vt 1.578125 0.562500
vt 1.703125 0.562500
vt 1.140625 0.609375
vt 1.140625 0.562500
vn 0.0000 1.0000 0.0000
vn 0.0000 -1.0000 -0.0000
vn 0.0000 0.0000 1.0000
vn 0.0000 0.0000 -1.0000
vn 1.0000 0.0000 0.0000
vn -1.0000 0.0000 0.0000
vn 0.0000 0.9839 0.1789
vn 0.0000 0.7071 0.7071
vn 0.0000 0.9890 0.1478
vn 0.0000 -1.0000 0.0005
vn 0.0000 -0.1478 0.9890
vn 0.0000 0.1478 -0.9890
usemtl ModelMaterial
s 1
f 57/113/19 58/114/19 59/115/19 60/116/19
f 61/117/20 62/118/20 63/119/20 64/120/20
f 58/114/21 57/113/21 64/121/21 63/122/21
f 60/123/22 59/124/22 62/125/22 61/126/22
f 59/124/23 58/114/23 63/122/23 62/125/23
f 57/113/24 60/127/24 61/128/24 64/121/24
f 65/129/19 66/130/19 67/131/19 68/132/19
f 69/133/20 70/134/20 71/135/20 72/136/20
f 66/130/21 65/129/21 72/137/21 71/138/21
f 68/139/22 67/140/22 70/141/22 69/142/22
f 67/140/23 66/130/23 71/138/23 70/141/23
f 65/129/24 68/143/24 69/144/24 72/137/24
f 73/145/25 74/146/25 75/147/25 76/148/25
f 77/149/20 78/150/20 79/151/20 80/152/20
f 74/146/26 73/145/26 80/153/26 79/154/26
f 76/155/22 75/156/22 78/157/22 77/158/22
f 75/156/23 74/146/23 79/154/23 78/157/23
f 73/145/24 76/159/24 77/160/24 80/153/24
f 81/161/27 82/162/27 83/163/27 84/164/27
f 85/165/28 86/166/28 87/167/28 88/168/28
f 82/162/29 81/161/29 88/169/29 87/170/29
f 84/171/30 83/172/30 86/173/30 85/174/30
f 83/172/23 82/162/23 87/170/23 86/173/23
f 81/161/24 84/175/24 85/176/24 88/169/24
f 89/177/27 90/178/27 91/179/27 92/180/27
f 93/181/28 94/182/28 95/183/28 96/184/28
f 90/178/21 89/177/21 96/185/21 95/186/21
f 92/187/30 91/188/30 94/189/30 93/190/30
f 91/188/23 90/178/23 95/186/23 94/189/23
f 89/177/24 92/191/24 93/192/24 96/185/24
