# Blender v2.79 (sub 0) OBJ File: ''
# www.blender.org
mtllib wood_track.mtl
o RAIL_RIGHT
v -0.500000 0.312500 -0.718750
v 0.500000 0.312500 -0.718750
v 0.500000 0.312500 -0.781250
v -0.500000 0.312500 -0.781250
v -0.500000 0.187500 -0.781250
v 0.500000 0.187500 -0.781250
v 0.500000 0.187500 -0.718750
v -0.500000 0.187500 -0.718750
v -0.500000 0.375000 -0.687500
v 0.500000 0.375000 -0.687500
v 0.500000 0.375000 -0.812500
v -0.500000 0.375000 -0.812500
v -0.500000 0.312500 -0.812500
v 0.500000 0.312500 -0.812500
v 0.500000 0.312500 -0.687500
v -0.500000 0.312500 -0.687500
v -0.500000 0.187500 -0.687500
v 0.500000 0.187500 -0.687500
v 0.500000 0.187500 -0.812500
v -0.500000 0.187500 -0.812500
v -0.500000 0.125000 -0.843750
v 0.500000 0.125000 -0.843750
v 0.500000 0.125000 -0.656250
v -0.500000 0.125000 -0.656250
vt 1.015625 0.968750
vt 1.140625 0.968750
vt 1.140625 0.984375
vt 1.015625 0.984375
vt 1.140625 0.968750
vt 1.265625 0.968750
vt 1.265625 0.984375
vt 1.140625 0.984375
vt 1.015625 0.937500
vt 1.140625 0.937500
vt 1.273438 0.968750
vt 1.148438 0.968750
vt 1.148438 0.937500
vt 1.273438 0.937500
vt 1.007812 0.968750
vt 1.007812 0.937500
vt 1.648438 0.953125
vt 1.773438 0.953125
vt 1.773438 0.984375
vt 1.648438 0.984375
vt 1.773438 0.953125
vt 1.898438 0.953125
vt 1.898438 0.984375
vt 1.773438 0.984375
vt 1.648438 0.937500
vt 1.773438 0.937500
vt 1.914062 0.953125
vt 1.789062 0.953125
vt 1.789062 0.937500
vt 1.914062 0.937500
vt 1.632812 0.953125
vt 1.632812 0.937500
vt 1.460938 0.828125
vt 1.585938 0.828125
vt 1.585938 0.859375
vt 1.460938 0.859375
vt 1.585938 0.828125
vt 1.710938 0.828125
vt 1.710938 0.859375
vt 1.585938 0.859375
vt 1.460938 0.812500
vt 1.585938 0.812500
vt 1.726562 0.828125
vt 1.601562 0.828125
vt 1.601562 0.812500
vt 1.726562 0.812500
vt 1.445312 0.828125
vt 1.445312 0.812500
vn 0.0000 1.0000 0.0000
vn 0.0000 -1.0000 -0.0000
vn 0.0000 0.0000 1.0000
vn 0.0000 0.0000 -1.0000
vn 1.0000 0.0000 0.0000
vn -1.0000 0.0000 0.0000
vn 0.0000 0.4472 0.8944
vn 0.0000 0.4472 -0.8944
usemtl ModelMaterial
s off
f 1/1/1 2/2/1 3/3/1 4/4/1
f 5/5/2 6/6/2 7/7/2 8/8/2
f 2/2/3 1/1/3 8/9/3 7/10/3
f 4/11/4 3/12/4 6/13/4 5/14/4
f 3/12/5 2/2/5 7/10/5 6/13/5
f 1/1/6 4/15/6 5/16/6 8/9/6
f 9/17/1 10/18/1 11/19/1 12/20/1
f 13/21/2 14/22/2 15/23/2 16/24/2
f 10/18/3 9/17/3 16/25/3 15/26/3
f 12/27/4 11/28/4 14/29/4 13/30/4
f 11/28/5 10/18/5 15/26/5 14/29/5
f 9/17/6 12/31/6 13/32/6 16/25/6
f 17/33/1 18/34/1 19/35/1 20/36/1
f 21/37/2 22/38/2 23/39/2 24/40/2
f 18/34/7 17/33/7 24/41/7 23/42/7
f 20/43/8 19/44/8 22/45/8 21/46/8
f 19/44/5 18/34/5 23/42/5 22/45/5
f 17/33/6 20/47/6 21/48/6 24/41/6
o RAIL_BASE
v -0.156250 0.125000 1.250000
v 0.156250 0.125000 1.250000
v 0.156250 0.125000 -1.250000
v -0.156250 0.125000 -1.250000
v -0.156250 0.000000 -1.250000
v 0.156250 0.000000 -1.250000
v 0.156250 -0.000000 1.250000
v -0.156250 -0.000000 1.250000
v -0.125000 0.156250 0.875000
v 0.125000 0.156250 0.875000
v 0.125000 0.156250 0.625000
v -0.125000 0.156250 0.625000
v -0.125000 0.093750 0.562500
v 0.125000 0.093750 0.562500
v 0.125000 0.093750 0.937500
v -0.125000 0.093750 0.937500
v -0.125000 0.156250 -0.625000
v 0.125000 0.156250 -0.625000
v 0.125000 0.156250 -0.875000
v -0.125000 0.156250 -0.875000
v -0.125000 0.093750 -0.937500
v 0.125000 0.093750 -0.937500
v 0.125000 0.093750 -0.562500
v -0.125000 0.093750 -0.562500
vt 1.320312 0.234375
vt 1.359375 0.234375
vt 1.359375 0.859375
vt 1.320312 0.859375
vt 1.359375 0.234375
vt 1.398438 0.234375
vt 1.398438 0.859375
vt 1.359375 0.859375
vt 1.320312 0.203125
vt 1.359375 0.203125
vt 1.710938 0.234375
vt 1.671875 0.234375
vt 1.671875 0.203125
vt 1.710938 0.203125
vt 1.007812 0.234375
vt 1.007812 0.203125
vt 1.789062 0.796875
vt 1.820312 0.796875
vt 1.820312 0.859375
vt 1.789062 0.859375
vt 1.820312 0.796875
vt 1.851562 0.796875
vt 1.851562 0.859375
vt 1.820312 0.859375
vt 1.789062 0.781250
vt 1.820312 0.781250
vt 1.882812 0.796875
vt 1.851562 0.796875
vt 1.851562 0.781250
vt 1.882812 0.781250
vt 1.757812 0.796875
vt 1.757812 0.781250
vt 1.476562 0.671875
vt 1.507812 0.671875
vt 1.507812 0.734375
vt 1.476562 0.734375
vt 1.507812 0.671875
vt 1.539062 0.671875
vt 1.539062 0.734375
vt 1.507812 0.734375
vt 1.476562 0.656250
vt 1.507812 0.656250
vt 1.570312 0.671875
vt 1.539062 0.671875
vt 1.539062 0.656250
vt 1.570312 0.656250
vt 1.445312 0.671875
vt 1.445312 0.656250
vn 0.0000 1.0000 0.0000
vn 0.0000 -1.0000 -0.0000
vn 0.0000 0.0000 1.0000
vn 0.0000 0.0000 -1.0000
vn 1.0000 0.0000 0.0000
vn -1.0000 0.0000 0.0000
vn 0.0000 0.7071 0.7071
vn 0.0000 0.7071 -0.7071
usemtl ModelMaterial
s off
f 25/49/9 26/50/9 27/51/9 28/52/9
f 29/53/10 30/54/10 31/55/10 32/56/10
f 26/50/11 25/49/11 32/57/11 31/58/11
f 28/59/12 27/60/12 30/61/12 29/62/12
f 27/60/13 26/50/13 31/58/13 30/61/13
f 25/49/14 28/63/14 29/64/14 32/57/14
f 33/65/9 34/66/9 35/67/9 36/68/9
f 37/69/10 38/70/10 39/71/10 40/72/10
f 34/66/15 33/65/15 40/73/15 39/74/15
f 36/75/16 35/76/16 38/77/16 37/78/16
f 35/76/13 34/66/13 39/74/13 38/77/13
f 33/65/14 36/79/14 37/80/14 40/73/14
f 41/81/9 42/82/9 43/83/9 44/84/9
f 45/85/10 46/86/10 47/87/10 48/88/10
f 42/82/15 41/81/15 48/89/15 47/90/15
f 44/91/16 43/92/16 46/93/16 45/94/16
f 43/92/13 42/82/13 47/90/13 46/93/13
f 41/81/14 44/95/14 45/96/14 48/89/14
o RAIL_LEFT
v -0.500000 0.312500 0.781250
v 0.500000 0.312500 0.781250
v 0.500000 0.312500 0.718750
v -0.500000 0.312500 0.718750
v -0.500000 0.187500 0.718750
v 0.500000 0.187500 0.718750
v 0.500000 0.187500 0.781250
v -0.500000 0.187500 0.781250
v -0.500000 0.375000 0.812500
v 0.500000 0.375000 0.812500
v 0.500000 0.375000 0.687500
v -0.500000 0.375000 0.687500
v -0.500000 0.312500 0.687500
v 0.500000 0.312500 0.687500
v 0.500000 0.312500 0.812500
v -0.500000 0.312500 0.812500
v -0.500000 0.187500 0.812500
v 0.500000 0.187500 0.812500
v 0.500000 0.187500 0.687500
v -0.500000 0.187500 0.687500
v -0.500000 0.125000 0.656250
v 0.500000 0.125000 0.656250
v 0.500000 0.125000 0.843750
v -0.500000 0.125000 0.843750
vt 1.328125 0.968750
vt 1.453125 0.968750
vt 1.453125 0.984375
vt 1.328125 0.984375
vt 1.453125 0.968750
vt 1.578125 0.968750
vt 1.578125 0.984375
vt 1.453125 0.984375
vt 1.328125 0.937500
vt 1.453125 0.937500
vt 1.585938 0.968750
vt 1.460938 0.968750
vt 1.460938 0.937500
vt 1.585938 0.937500
vt 1.320312 0.968750
vt 1.320312 0.937500
vt 1.023438 0.828125
vt 1.148438 0.828125
vt 1.148438 0.859375
vt 1.023438 0.859375
vt 1.148438 0.828125
vt 1.273438 0.828125
vt 1.273438 0.859375
vt 1.148438 0.859375
vt 1.023438 0.812500
vt 1.148438 0.812500
vt 1.289062 0.828125
vt 1.164062 0.828125
vt 1.164062 0.812500
vt 1.289062 0.812500
vt 1.007812 0.828125
vt 1.007812 0.812500
vt 1.023438 0.703125
vt 1.148438 0.703125
vt 1.148438 0.734375
vt 1.023438 0.734375
vt 1.148438 0.703125
vt 1.273438 0.703125
vt 1.273438 0.734375
vt 1.148438 0.734375
vt 1.023438 0.687500
vt 1.148438 0.687500
vt 1.289062 0.703125
vt 1.164062 0.703125
vt 1.164062 0.687500
vt 1.289062 0.687500
vt 1.007812 0.703125
vt 1.007812 0.687500
vn 0.0000 1.0000 0.0000
vn 0.0000 -1.0000 -0.0000
vn 0.0000 0.0000 1.0000
vn 0.0000 0.0000 -1.0000
vn 1.0000 0.0000 0.0000
vn -1.0000 0.0000 0.0000
vn 0.0000 0.4472 0.8944
vn 0.0000 0.4472 -0.8944
usemtl ModelMaterial
s off
f 49/97/17 50/98/17 51/99/17 52/100/17
f 53/101/18 54/102/18 55/103/18 56/104/18
f 50/98/19 49/97/19 56/105/19 55/106/19
f 52/107/20 51/108/20 54/109/20 53/110/20
f 51/108/21 50/98/21 55/106/21 54/109/21
f 49/97/22 52/111/22 53/112/22 56/105/22
f 57/113/17 58/114/17 59/115/17 60/116/17
f 61/117/18 62/118/18 63/119/18 64/120/18
f 58/114/19 57/113/19 64/121/19 63/122/19
f 60/123/20 59/124/20 62/125/20 61/126/20
f 59/124/21 58/114/21 63/122/21 62/125/21
f 57/113/22 60/127/22 61/128/22 64/121/22
f 65/129/17 66/130/17 67/131/17 68/132/17
f 69/133/18 70/134/18 71/135/18 72/136/18
f 66/130/23 65/129/23 72/137/23 71/138/23
f 68/139/24 67/140/24 70/141/24 69/142/24
f 67/140/21 66/130/21 71/138/21 70/141/21
f 65/129/22 68/143/22 69/144/22 72/137/22
